<svg id="visual" viewBox="0 0 900 600" width="900" height="600" xmlns="http://www.w3.org/2000/svg" version="1.1">
    <rect x="0" y="0" width="900" height="600" fill="#F4F4F1"></rect>
    <path d="M0 74L21.5 74.2C43 74.3 86 74.7 128.8 81.5C171.7 88.3 214.3 101.7 257.2 118.2C300 134.7 343 154.3 385.8 148.8C428.7 143.3 471.3 112.7 514.2 98C557 83.3 600 84.7 642.8 92C685.7 99.3 728.3 112.7 771.2 125.5C814 138.3 857 150.7 878.5 156.8L900 163L900 0L878.5 0C857 0 814 0 771.2 0C728.3 0 685.7 0 642.8 0C600 0 557 0 514.2 0C471.3 0 428.7 0 385.8 0C343 0 300 0 257.2 0C214.3 0 171.7 0 128.8 0C86 0 43 0 21.5 0L0 0Z"
          fill="#FC915F" stroke-linecap="round" stroke-linejoin="miter"></path>
</svg>